<svg width="218" height="64" viewBox="0 0 218 64" fill="none" xmlns="http://www.w3.org/2000/svg">
<g clip-path="url(#clip0_417_442)">
<path d="M65.23 27.4845H69.2509V39.5948H72.9473V27.4845H76.9682V24.5481H65.23V27.4845ZM89.178 39.5948H93.0908L87.6 24.5481H83.3197L77.829 39.5948H81.6984L82.6064 36.9371H88.27L89.178 39.5948ZM87.3189 34.1078H83.5791L85.4382 28.599L87.3189 34.1078ZM102.782 29.435C102.782 30.614 102.133 31.3211 100.75 31.3211H98.4582V27.5917H100.75C102.133 27.5917 102.782 28.3205 102.782 29.435ZM94.7617 24.5481V39.5948H98.4582V33.9148H99.3445L102.501 39.5948H106.673L103.171 33.6361C105.506 32.9503 106.543 31.1712 106.543 29.2851C106.543 26.6699 104.684 24.5481 100.966 24.5481H94.7617ZM119.888 35.115C119.888 30.0781 112.387 31.2569 112.387 28.642C112.387 27.6989 113.057 27.2488 113.943 27.2703C114.938 27.2915 115.63 27.8704 115.695 28.8349H119.694C119.542 25.9628 117.316 24.3337 114.008 24.3337C110.831 24.3337 108.474 25.9198 108.474 28.7707C108.431 34.1078 116.019 32.6073 116.019 35.3937C116.019 36.2725 115.327 36.8084 114.246 36.8084C113.209 36.8084 112.474 36.251 112.365 35.0938H108.431C108.539 38.1374 111.09 39.745 114.354 39.745C117.9 39.745 119.888 37.6442 119.888 35.115ZM130.441 31.2784V27.506H132.451C133.921 27.506 134.548 28.2348 134.548 29.3921C134.548 30.5495 133.921 31.2784 132.451 31.2784H130.441ZM138.309 29.3921C138.309 26.6272 136.45 24.5481 132.732 24.5481H126.744V39.5948H130.441V34.1935H132.732C136.602 34.1935 138.309 31.8785 138.309 29.3921ZM143.93 34.0433C143.93 31.9857 144.946 31.3856 146.697 31.3856H147.713V27.506C146.092 27.506 144.773 28.3633 143.93 29.628V27.6344H140.234V39.5948H143.93V34.0433ZM161.283 33.6146C161.283 29.8209 158.559 27.463 155.014 27.463C151.491 27.463 148.745 29.8209 148.745 33.6146C148.745 37.4085 151.426 39.7663 154.971 39.7663C158.516 39.7663 161.283 37.4085 161.283 33.6146ZM152.506 33.6146C152.506 31.5786 153.674 30.6353 155.014 30.6353C156.311 30.6353 157.522 31.5786 157.522 33.6146C157.522 35.6294 156.29 36.594 154.971 36.594C153.631 36.594 152.506 35.6294 152.506 33.6146ZM163.828 35.4367C163.828 38.5445 165.579 39.5948 168.086 39.5948H169.967V36.487H168.648C167.827 36.487 167.524 36.1868 167.524 35.4795V30.6783H169.945V27.6344H167.524V24.7196H163.828V27.6344H162.358V30.6783H163.828V35.4367ZM183.829 33.6146C183.829 29.8209 181.105 27.463 177.56 27.463C174.036 27.463 171.291 29.8209 171.291 33.6146C171.291 37.4085 173.972 39.7663 177.517 39.7663C181.062 39.7663 183.829 37.4085 183.829 33.6146ZM175.052 33.6146C175.052 31.5786 176.22 30.6353 177.56 30.6353C178.857 30.6353 180.068 31.5786 180.068 33.6146C180.068 35.6294 178.835 36.594 177.517 36.594C176.176 36.594 175.052 35.6294 175.052 33.6146ZM185.055 33.6146C185.055 37.4085 187.563 39.7663 191.108 39.7663C194.134 39.7663 196.274 38.0301 196.901 35.2652H192.967C192.643 36.1441 192.059 36.6369 191.043 36.6369C189.724 36.6369 188.816 35.6082 188.816 33.6146C188.816 31.6213 189.724 30.5925 191.043 30.5925C192.059 30.5925 192.664 31.1284 192.967 31.9642H196.901C196.274 29.1136 194.134 27.463 191.108 27.463C187.563 27.463 185.055 29.8422 185.055 33.6146ZM210.681 33.6146C210.681 29.8209 207.958 27.463 204.412 27.463C200.889 27.463 198.144 29.8209 198.144 33.6146C198.144 37.4085 200.824 39.7663 204.369 39.7663C207.915 39.7663 210.681 37.4085 210.681 33.6146ZM201.905 33.6146C201.905 31.5786 203.072 30.6353 204.412 30.6353C205.709 30.6353 206.92 31.5786 206.92 33.6146C206.92 35.6294 205.688 36.594 204.369 36.594C203.029 36.594 201.905 35.6294 201.905 33.6146ZM212.643 39.5948H216.339V23.7335H212.643V39.5948Z" fill="black"/>
<g opacity="0.7" filter="url(#filter0_i_417_442)">
<path d="M31.3183 53.0363C43.0195 54.1597 53.4237 45.6649 54.5567 34.0627C55.6897 22.4605 47.1225 12.1444 35.4213 11.0209C23.7201 9.89752 13.3159 18.3923 12.1829 29.9945C11.0499 41.5967 19.6171 51.9128 31.3183 53.0363Z" fill="#C4C4C4" fill-opacity="0.01"/>
</g>
<path d="M54.2166 34.03C53.1018 45.4459 42.8647 53.8041 31.3514 52.6989C19.8381 51.5935 11.4085 41.4431 12.5233 30.0272C13.6381 18.6112 23.8752 10.2529 35.3884 11.3583C46.9017 12.4637 55.3315 22.6141 54.2166 34.03Z" stroke="url(#paint0_linear_417_442)" stroke-width="2.83885"/>
<path d="M54.2166 34.03C53.1018 45.4459 42.8647 53.8041 31.3514 52.6989C19.8381 51.5935 11.4085 41.4431 12.5233 30.0272C13.6381 18.6112 23.8752 10.2529 35.3884 11.3583C46.9017 12.4637 55.3315 22.6141 54.2166 34.03Z" stroke="url(#paint1_linear_417_442)" stroke-width="2.83885"/>
<g filter="url(#filter1_f_417_442)">
<path d="M30.0342 11.4455C23.01 12.5601 17.0257 17.1629 14.1588 23.5576L14.1489 23.5567L14.2233 22.7948C17.243 16.6407 23.1605 12.246 30.0607 11.1742L30.0342 11.4455Z" fill="#BEDFB9"/>
</g>
<g opacity="0.3" filter="url(#filter2_i_417_442)">
<path d="M31.3183 53.0365C43.0195 54.1599 53.4237 45.6652 54.5567 34.063C55.6897 22.4608 47.1225 12.1446 35.4213 11.0212C23.7201 9.89777 13.3159 18.3925 12.1829 29.9947C11.0499 41.5969 19.6171 51.9131 31.3183 53.0365Z" fill="#C4C4C4" fill-opacity="0.01"/>
</g>
<path fill-rule="evenodd" clip-rule="evenodd" d="M34.1896 17.3022C34.474 17.8446 34.5321 18.8402 34.5851 19.7508C34.5983 19.9783 34.6113 20.2005 34.6274 20.409C34.935 24.3687 35.5911 29.1303 37.6043 31.5811C38.8379 33.0842 41.2969 33.6848 43.8623 34.3111L43.8626 34.3114C44.0673 34.3613 44.273 34.4114 44.4787 34.4623V34.4611C45.4312 34.6973 46.1557 34.9383 46.297 35.5334C43.602 36.1163 38.5876 36.7078 33.3871 36.8664C28.1861 36.7078 23.1711 36.1165 20.4757 35.5336C20.6171 34.9385 21.3415 34.6973 22.2941 34.4614V34.4625C22.4998 34.4117 22.7054 34.3615 22.9103 34.3114C25.4757 33.6848 27.9349 33.0844 29.1685 31.5811C31.1817 29.1303 31.8378 24.3689 32.1453 20.4091C32.1614 20.2006 32.1745 19.9784 32.1877 19.7509C32.2402 18.8494 32.2975 17.8645 32.5747 17.3186C32.7147 16.9078 33.0249 16.6222 33.3849 16.6222C33.7404 16.6222 34.047 16.9002 34.1896 17.3022ZM33.3873 46.5495C33.4227 46.5495 33.4581 46.5495 33.4936 46.5468C34.7589 46.4774 35.633 44.7563 36.1725 43.6936L36.1867 43.6657C36.362 43.3203 36.5275 42.9746 36.6905 42.6343V42.634C37.1512 41.6721 37.591 40.7544 38.17 40.0122C39.2567 38.6214 41.4298 37.8209 43.3438 37.2723C43.4382 37.2451 43.5815 37.2134 43.7552 37.1749C44.5548 36.9977 45.996 36.6787 46.271 36.0057L46.2703 36.006C46.1251 36.0348 40.123 37.2372 33.3844 37.5331C26.6471 37.237 20.6467 36.0351 20.5016 36.006H20.5008C20.7759 36.6787 22.2172 36.998 23.0165 37.1749L23.0166 37.1751C23.1902 37.2136 23.3336 37.2454 23.4281 37.2726C25.342 37.8209 27.5153 38.6216 28.6018 40.0124C29.181 40.7544 29.6205 41.6723 30.0813 42.6343C30.2443 42.9746 30.4098 43.3203 30.5854 43.6659L30.5996 43.6938C31.1391 44.7563 32.0128 46.4776 33.2782 46.5471C33.3141 46.5495 33.35 46.5495 33.3861 46.5495H33.3873ZM46.3187 35.8049C46.3192 35.8003 46.3197 35.796 46.3199 35.7915C46.3202 35.7877 46.3204 35.7839 46.3206 35.78C46.3209 35.776 46.3209 35.7717 46.3209 35.7674H46.3223V35.7968C46.3223 35.8011 46.3209 35.8054 46.3197 35.8097L46.319 35.813L46.3182 35.8154C46.318 35.8161 46.318 35.8168 46.3177 35.8175C46.3177 35.818 46.3175 35.8185 46.3175 35.819C46.318 35.8142 46.3182 35.8094 46.3187 35.8049ZM46.3175 35.819L46.3173 35.8226V35.8211V35.8206L46.3175 35.819ZM20.4532 35.8044C20.4536 35.8092 20.454 35.814 20.4544 35.8187C20.454 35.8156 20.4531 35.8125 20.4522 35.8094C20.4509 35.8051 20.4497 35.8008 20.4497 35.7965V35.7671H20.4509C20.4509 35.781 20.452 35.7927 20.4532 35.8044ZM20.4546 35.8223C20.4546 35.8211 20.4546 35.8199 20.4544 35.8187L20.4546 35.8223Z" fill="url(#paint2_linear_417_442)"/>
</g>
<defs>
<filter id="filter0_i_417_442" x="-56.0499" y="-57.2113" width="110.707" height="110.347" filterUnits="userSpaceOnUse" color-interpolation-filters="sRGB">
<feFlood flood-opacity="0" result="BackgroundImageFix"/>
<feBlend mode="normal" in="SourceGraphic" in2="BackgroundImageFix" result="shape"/>
<feColorMatrix in="SourceAlpha" type="matrix" values="0 0 0 0 0 0 0 0 0 0 0 0 0 0 0 0 0 0 127 0" result="hardAlpha"/>
<feOffset dx="-68.1324" dy="-68.1324"/>
<feGaussianBlur stdDeviation="76.6489"/>
<feComposite in2="hardAlpha" operator="arithmetic" k2="-1" k3="1"/>
<feColorMatrix type="matrix" values="0 0 0 0 0.0468403 0 0 0 0 0.2375 0 0 0 0 0.0874324 0 0 0 1 0"/>
<feBlend mode="normal" in2="shape" result="effect1_innerShadow_417_442"/>
</filter>
<filter id="filter1_f_417_442" x="-19.9173" y="-22.892" width="84.044" height="80.5158" filterUnits="userSpaceOnUse" color-interpolation-filters="sRGB">
<feFlood flood-opacity="0" result="BackgroundImageFix"/>
<feBlend mode="normal" in="SourceGraphic" in2="BackgroundImageFix" result="shape"/>
<feGaussianBlur stdDeviation="17.0331" result="effect1_foregroundBlur_417_442"/>
</filter>
<filter id="filter2_i_417_442" x="12.0825" y="10.9214" width="51.0913" height="50.7314" filterUnits="userSpaceOnUse" color-interpolation-filters="sRGB">
<feFlood flood-opacity="0" result="BackgroundImageFix"/>
<feBlend mode="normal" in="SourceGraphic" in2="BackgroundImageFix" result="shape"/>
<feColorMatrix in="SourceAlpha" type="matrix" values="0 0 0 0 0 0 0 0 0 0 0 0 0 0 0 0 0 0 127 0" result="hardAlpha"/>
<feOffset dx="8.51655" dy="8.51655"/>
<feGaussianBlur stdDeviation="5.6777"/>
<feComposite in2="hardAlpha" operator="arithmetic" k2="-1" k3="1"/>
<feColorMatrix type="matrix" values="0 0 0 0 1 0 0 0 0 1 0 0 0 0 1 0 0 0 1 0"/>
<feBlend mode="normal" in2="shape" result="effect1_innerShadow_417_442"/>
</filter>
<linearGradient id="paint0_linear_417_442" x1="14.2345" y1="8.98677" x2="52.1185" y2="55.3862" gradientUnits="userSpaceOnUse">
<stop stop-color="#3DFB0D"/>
<stop offset="0.755208" stop-color="#67FB0D" stop-opacity="0.1"/>
</linearGradient>
<linearGradient id="paint1_linear_417_442" x1="14.2345" y1="8.98677" x2="52.1185" y2="55.3862" gradientUnits="userSpaceOnUse">
<stop stop-color="#CDF9B2"/>
<stop offset="1" stop-color="#24FF00" stop-opacity="0.1"/>
</linearGradient>
<linearGradient id="paint2_linear_417_442" x1="33.3859" y1="16.6222" x2="33.3859" y2="46.5495" gradientUnits="userSpaceOnUse">
<stop stop-color="#55FF79"/>
<stop offset="1" stop-color="#097200"/>
</linearGradient>
<clipPath id="clip0_417_442">
<rect width="217" height="64" fill="white" transform="translate(0.961426)"/>
</clipPath>
</defs>
</svg>
