<svg width="188" height="46" viewBox="0 0 188 46" fill="none" xmlns="http://www.w3.org/2000/svg">
<path d="M61.2995 28.5371C60.0705 27.8989 59.0438 26.9341 58.3337 25.75C57.6096 24.5418 57.2369 23.1575 57.2571 21.7512C57.2369 20.3449 57.6096 18.9606 58.3337 17.7524C59.0438 16.5683 60.0705 15.6034 61.2995 14.9653C62.6176 14.3016 64.0744 13.9558 65.5518 13.9558C67.0293 13.9558 68.486 14.3016 69.8041 14.9653C71.042 15.6206 72.0772 16.5983 72.7991 17.7936C73.521 18.9889 73.9024 20.3569 73.9024 21.7512C73.9024 23.1455 73.521 24.5135 72.7991 25.7088C72.0772 26.9041 71.042 27.8818 69.8041 28.5371C68.486 29.2008 67.0293 29.5466 65.5518 29.5466C64.0744 29.5466 62.6176 29.2008 61.2995 28.5371ZM67.9962 25.9654C68.7104 25.5575 69.2947 24.9579 69.6823 24.2353C70.0914 23.4656 70.3053 22.6083 70.3053 21.7377C70.3053 20.8672 70.0914 20.0098 69.6823 19.2401C69.2907 18.5274 68.7067 17.9376 67.9962 17.5369C67.251 17.1351 66.4166 16.9246 65.5688 16.9246C64.721 16.9246 63.8866 17.1351 63.1413 17.5369C62.4218 17.941 61.8289 18.5351 61.4282 19.2536C61.0224 20.0243 60.8105 20.8813 60.8105 21.7512C60.8105 22.6211 61.0224 23.4781 61.4282 24.2488C61.8252 24.9655 62.4133 25.5595 63.1277 25.9654C63.873 26.3673 64.7074 26.5778 65.5552 26.5778C66.403 26.5778 67.2374 26.3673 67.9827 25.9654H67.9962Z" fill="#30465C"/>
<path d="M78.5049 28.6986C77.5595 28.2157 76.7672 27.4816 76.2162 26.578C75.679 25.6394 75.3965 24.578 75.3965 23.4981C75.3965 22.4181 75.679 21.3568 76.2162 20.4182C76.7652 19.5112 77.5578 18.7744 78.5049 18.2909C79.5253 17.7646 80.6597 17.4942 81.8092 17.5032C82.9522 17.4851 84.0823 17.7463 85.1 18.2639C86.0419 18.7498 86.8296 19.4863 87.3751 20.3912C87.9163 21.3285 88.201 22.3904 88.201 23.4712C88.201 24.5519 87.9163 25.6138 87.3751 26.5511C86.8275 27.4526 86.0402 28.1864 85.1 28.6716C84.084 29.1948 82.9532 29.4585 81.8092 29.4391C80.6633 29.466 79.5284 29.2116 78.5049 28.6986ZM83.9218 25.8307C84.4987 25.1919 84.7981 24.3522 84.7547 23.4947C84.7981 22.6373 84.4987 21.7975 83.9218 21.1587C83.6483 20.8717 83.3169 20.6454 82.9494 20.4946C82.5818 20.3438 82.1864 20.2719 81.7889 20.2835C81.3895 20.2725 80.9922 20.3447 80.6225 20.4954C80.2529 20.6461 79.919 20.872 79.6424 21.1587C79.3591 21.4758 79.1415 21.8454 79.0021 22.2462C78.8627 22.6471 78.8041 23.0713 78.8299 23.4947C78.8087 23.9204 78.8726 24.346 79.0179 24.747C79.1632 25.1479 79.3869 25.5163 79.6763 25.8307C79.9518 26.1187 80.2855 26.3456 80.6554 26.4964C81.0253 26.6472 81.4231 26.7186 81.8228 26.7059C82.2182 26.7174 82.6116 26.6453 82.9769 26.4944C83.3422 26.3436 83.6712 26.1173 83.9421 25.8307H83.9218Z" fill="#30465C"/>
<path d="M95.3182 17.961C96.0708 17.6599 96.877 17.5133 97.6881 17.5301V20.6336C97.3157 20.6336 97.0652 20.5865 96.9297 20.5865C96.5155 20.5641 96.101 20.624 95.7104 20.7627C95.3197 20.9014 94.9608 21.1161 94.6546 21.3943C94.3611 21.7227 94.1372 22.1066 93.9964 22.523C93.8556 22.9394 93.8008 23.3798 93.8353 23.8178V29.291H90.4497V17.6984H93.6796V19.2333C94.0927 18.6626 94.6612 18.2212 95.3182 17.961Z" fill="#30465C"/>
<path d="M107.635 28.7322C107.266 28.9918 106.849 29.1771 106.409 29.2775C105.912 29.4064 105.399 29.4698 104.885 29.466C103.717 29.5384 102.564 29.1598 101.669 28.4091C101.27 28.0007 100.963 27.5131 100.767 26.9783C100.571 26.4434 100.491 25.8734 100.532 25.3056V20.5461H98.7305V17.961H100.532V15.1403H103.917V17.961H106.822V20.5461H103.883V25.2585C103.859 25.67 103.995 26.075 104.263 26.3895C104.403 26.5263 104.571 26.6323 104.755 26.7007C104.939 26.7691 105.136 26.7984 105.332 26.7867C105.82 26.7981 106.297 26.6463 106.687 26.3558L107.635 28.7322Z" fill="#30465C"/>
<path d="M115.916 14.2113H122.802C124.312 14.1804 125.807 14.5009 127.17 15.147C128.385 15.7287 129.407 16.6445 130.115 17.786C130.833 18.9831 131.197 20.3576 131.165 21.7511C131.197 23.1447 130.833 24.5191 130.115 25.7163C129.407 26.8578 128.385 27.7736 127.17 28.3553C125.807 29.0014 124.312 29.3218 122.802 29.291H115.916V14.2113ZM122.633 26.4232C123.962 26.4904 125.264 26.0386 126.262 25.1643C126.719 24.7233 127.075 24.1909 127.309 23.6025C127.542 23.014 127.647 22.383 127.617 21.7511C127.647 21.1193 127.542 20.4883 127.309 19.8998C127.075 19.3114 126.719 18.779 126.262 18.338C125.264 17.4637 123.962 17.0119 122.633 17.0791H119.457V26.4232H122.633Z" fill="#30465C"/>
<path d="M133.745 15.5442C133.557 15.3732 133.406 15.1652 133.304 14.9334C133.201 14.7016 133.148 14.4511 133.148 14.1978C133.148 13.9444 133.201 13.6939 133.304 13.4621C133.406 13.2303 133.557 13.0223 133.745 12.8514C134.16 12.481 134.704 12.2876 135.261 12.3128C135.814 12.2872 136.356 12.4699 136.778 12.8244C136.966 12.9836 137.116 13.182 137.218 13.4054C137.32 13.6288 137.371 13.8717 137.367 14.117C137.375 14.3776 137.326 14.6367 137.224 14.877C137.123 15.1173 136.971 15.3333 136.778 15.5105C136.351 15.8607 135.815 16.0522 135.261 16.0522C134.708 16.0522 134.172 15.8607 133.745 15.5105V15.5442ZM133.575 17.6984H136.961V29.291H133.575V17.6984Z" fill="#30465C"/>
<path d="M152.122 17.6985V27.3522C152.122 29.4796 151.566 31.0549 150.449 32.0647C149.332 33.0745 147.741 33.613 145.574 33.613C144.493 33.6187 143.416 33.4829 142.371 33.2091C141.464 32.9811 140.61 32.5785 139.859 32.0243L141.213 29.6075C141.768 30.0418 142.399 30.3684 143.075 30.5702C143.804 30.8013 144.565 30.9194 145.33 30.9202C146.25 30.999 147.167 30.7297 147.896 30.1662C148.196 29.8492 148.425 29.4734 148.57 29.063C148.714 28.6526 148.771 28.2166 148.736 27.7831V27.2849C148.263 27.776 147.689 28.1597 147.054 28.4095C146.418 28.6593 145.735 28.7695 145.052 28.7323C144.032 28.7511 143.023 28.5199 142.114 28.0591C141.241 27.6068 140.51 26.9244 140.001 26.0866C139.491 25.1941 139.222 24.1849 139.222 23.1582C139.222 22.1314 139.491 21.1223 140.001 20.2298C140.51 19.392 141.241 18.7095 142.114 18.2573C143.023 17.7964 144.032 17.5652 145.052 17.5841C145.78 17.5384 146.509 17.6647 147.179 17.9525C147.848 18.2403 148.44 18.6815 148.905 19.2401V17.6985H152.122ZM147.93 25.1845C148.477 24.6382 148.784 23.8988 148.784 23.1279C148.784 22.357 148.477 21.6175 147.93 21.0713C147.327 20.5351 146.538 20.2527 145.73 20.2836C144.917 20.2541 144.124 20.5361 143.515 21.0713C143.241 21.3399 143.024 21.6601 142.875 22.0132C142.726 22.3663 142.65 22.7452 142.65 23.1279C142.65 23.5106 142.726 23.8895 142.875 24.2426C143.024 24.5957 143.241 24.9158 143.515 25.1845C144.124 25.7197 144.917 26.0017 145.73 25.9722C146.538 26.0031 147.327 25.7207 147.93 25.1845Z" fill="#30465C"/>
<path d="M155.433 15.5442C155.245 15.3732 155.094 15.1652 154.992 14.9334C154.889 14.7016 154.836 14.4511 154.836 14.1978C154.836 13.9444 154.889 13.6939 154.992 13.4621C155.094 13.2303 155.245 13.0223 155.433 12.8514C155.848 12.4823 156.393 12.2891 156.949 12.3128C157.502 12.2872 158.044 12.4699 158.466 12.8244C158.654 12.9836 158.804 13.182 158.906 13.4054C159.008 13.6288 159.059 13.8717 159.055 14.117C159.063 14.3776 159.014 14.6367 158.912 14.877C158.811 15.1173 158.658 15.3333 158.466 15.5105C158.039 15.8607 157.503 16.0522 156.949 16.0522C156.396 16.0522 155.86 15.8607 155.433 15.5105V15.5442ZM155.263 17.6984H158.649V29.291H155.263V17.6984Z" fill="#30465C"/>
<path d="M169.3 28.7322C168.933 28.9906 168.519 29.1758 168.081 29.2775C167.582 29.406 167.067 29.4694 166.551 29.466C165.382 29.5384 164.23 29.1598 163.335 28.4091C162.936 28.0007 162.628 27.5131 162.432 26.9783C162.236 26.4434 162.156 25.8734 162.197 25.3056V20.5461H160.396V17.961H162.197V15.1403H165.583V17.961H168.488V20.5461H165.583V25.2585C165.558 25.67 165.694 26.075 165.962 26.3895C166.102 26.5263 166.27 26.6323 166.455 26.7007C166.639 26.7691 166.835 26.7984 167.032 26.7867C167.519 26.7981 167.996 26.6463 168.386 26.3558L169.3 28.7322Z" fill="#30465C"/>
<path d="M180.073 18.8092C181.039 19.662 181.522 20.9523 181.522 22.6802V29.291H178.367V27.8504C177.73 28.9275 176.545 29.466 174.812 29.466C174.011 29.4839 173.216 29.3277 172.482 29.0083C171.869 28.7493 171.346 28.316 170.979 27.7628C170.631 27.2231 170.449 26.5933 170.458 25.9519C170.439 25.4606 170.54 24.9721 170.754 24.5287C170.967 24.0852 171.286 23.7003 171.683 23.4072C172.496 22.7924 173.755 22.4849 175.462 22.4849H178.17C178.19 22.1711 178.139 21.8569 178.022 21.5647C177.905 21.2726 177.724 21.0098 177.493 20.7952C176.913 20.3554 176.189 20.1444 175.462 20.2028C174.841 20.2014 174.223 20.2991 173.634 20.4922C173.08 20.6624 172.562 20.9291 172.103 21.2799L170.918 18.9304C171.617 18.4584 172.39 18.1078 173.207 17.8937C174.09 17.6533 175 17.531 175.915 17.5301C177.412 17.4332 178.893 17.8887 180.073 18.8092ZM177.188 26.8002C177.637 26.5354 177.976 26.12 178.143 25.6288V24.4439H175.827C174.439 24.4439 173.742 24.895 173.742 25.7904C173.736 25.99 173.779 26.188 173.869 26.3666C173.959 26.5452 174.092 26.6988 174.257 26.8136C174.668 27.0858 175.158 27.2181 175.651 27.1906C176.19 27.2044 176.722 27.0693 177.188 26.8002Z" fill="#30465C"/>
<path d="M184.576 13.3092H187.961V29.2911H184.576V13.3092Z" fill="#30465C"/>
<path d="M35.0408 42.0684C31.7107 43.9946 27.9242 45.0031 24.0715 44.9901C18.2057 44.983 12.5829 42.6599 8.43957 38.5317C4.29626 34.4035 1.97171 28.8083 1.9771 22.9764C1.97015 19.6111 2.7563 16.291 4.27253 13.2822" stroke="#30465C" stroke-width="3" stroke-miterlimit="10"/>
<path d="M43.9177 32.7244C45.4316 29.7147 46.2176 26.3952 46.2131 23.0302C46.2221 20.1411 45.6573 17.2786 44.5512 14.6069C43.4451 11.9352 41.8194 9.50685 39.7674 7.46108C37.7154 5.41532 35.2774 3.79237 32.5932 2.68531C29.9091 1.57825 27.0315 1.00885 24.1255 1.00975C20.2737 0.992233 16.4861 1.99114 13.1494 3.90452" stroke="#30465C" stroke-width="3" stroke-miterlimit="10"/>
<path d="M29.6308 10.9126C27.8914 10.1091 25.9964 9.69324 24.0784 9.69409C21.775 9.70064 19.5123 10.2983 17.5093 11.4293C15.5063 12.5602 13.8309 14.1861 12.6453 16.1496C11.4597 18.113 10.804 20.3476 10.7417 22.6369C10.6794 24.9262 11.2127 27.1927 12.2898 29.217C13.661 31.8133 15.8723 33.8742 18.5667 35.0671C20.2934 35.8727 22.1779 36.2888 24.0852 36.2856C26.3937 36.2907 28.6642 35.7009 30.6752 34.5738C32.6862 33.4466 34.3691 31.8207 35.5598 29.8544C36.7506 27.888 37.4085 25.6485 37.4695 23.3541C37.5304 21.0597 36.9924 18.7888 35.9077 16.7627" stroke="#30465C" stroke-width="3" stroke-miterlimit="10"/>
<path d="M33.2668 16.103C34.8337 16.103 36.1039 14.8401 36.1039 13.2823C36.1039 11.7244 34.8337 10.4615 33.2668 10.4615C31.6999 10.4615 30.4297 11.7244 30.4297 13.2823C30.4297 14.8401 31.6999 16.103 33.2668 16.103Z" fill="#55AFBC"/>
<path d="M40.1192 42.3916C42.6547 42.3916 44.7101 40.3481 44.7101 37.8273C44.7101 35.3065 42.6547 33.2629 40.1192 33.2629C37.5837 33.2629 35.5283 35.3065 35.5283 37.8273C35.5283 40.3481 37.5837 42.3916 40.1192 42.3916Z" fill="#55AFBC"/>
<path d="M8.12532 12.885C10.8141 12.885 12.9938 10.7179 12.9938 8.04468C12.9938 5.37144 10.8141 3.20435 8.12532 3.20435C5.43653 3.20435 3.25684 5.37144 3.25684 8.04468C3.25684 10.7179 5.43653 12.885 8.12532 12.885Z" fill="#55AFBC"/>
</svg>
