<svg width="111" height="25" viewBox="0 0 111 25" fill="none" xmlns="http://www.w3.org/2000/svg">
<path d="M0.56 14.56H2.336C2.37867 14.9547 2.53333 15.312 2.8 15.632C3.07733 15.9413 3.44 16.1867 3.888 16.368C4.34667 16.5387 4.86933 16.624 5.456 16.624C5.97867 16.624 6.41067 16.56 6.752 16.432C7.09333 16.304 7.344 16.128 7.504 15.904C7.67467 15.6693 7.76 15.3973 7.76 15.088C7.76 14.7787 7.65867 14.5387 7.456 14.368C7.264 14.1867 6.96533 14.0373 6.56 13.92C6.15467 13.792 5.63733 13.6693 5.008 13.552C4.48533 13.456 3.97867 13.328 3.488 13.168C2.99733 13.008 2.55467 12.8053 2.16 12.56C1.776 12.3147 1.472 12.016 1.248 11.664C1.024 11.3013 0.912 10.8747 0.912 10.384C0.912 9.82933 1.06667 9.328 1.376 8.88C1.696 8.432 2.16533 8.08 2.784 7.824C3.40267 7.568 4.15467 7.44 5.04 7.44C6.39467 7.44 7.42933 7.75467 8.144 8.384C8.85867 9.00267 9.20533 9.84533 9.184 10.912H7.44C7.408 10.24 7.16267 9.75467 6.704 9.456C6.24533 9.15733 5.664 9.008 4.96 9.008C4.33067 9.008 3.80267 9.12 3.376 9.344C2.94933 9.568 2.736 9.93067 2.736 10.432C2.736 10.6453 2.784 10.832 2.88 10.992C2.98667 11.1413 3.15733 11.28 3.392 11.408C3.62667 11.5253 3.94667 11.6427 4.352 11.76C4.768 11.8667 5.27467 11.984 5.872 12.112C6.384 12.1973 6.864 12.3147 7.312 12.464C7.76 12.6133 8.14933 12.8 8.48 13.024C8.82133 13.248 9.088 13.536 9.28 13.888C9.472 14.24 9.568 14.672 9.568 15.184C9.568 15.7707 9.41867 16.2933 9.12 16.752C8.82133 17.2 8.36267 17.5573 7.744 17.824C7.136 18.08 6.34667 18.208 5.376 18.208C4.64 18.208 3.99467 18.1227 3.44 17.952C2.896 17.7707 2.432 17.5413 2.048 17.264C1.664 16.976 1.35467 16.6667 1.12 16.336C0.896 16.0053 0.736 15.6853 0.64 15.376C0.554667 15.056 0.528 14.784 0.56 14.56ZM17.8511 15.376H19.5631C19.4778 15.92 19.2645 16.4053 18.9231 16.832C18.5925 17.248 18.1391 17.5787 17.5631 17.824C16.9871 18.0587 16.2991 18.176 15.4991 18.176C14.5925 18.176 13.7818 18.0107 13.0671 17.68C12.3525 17.3387 11.7925 16.8587 11.3871 16.24C10.9818 15.6213 10.7791 14.8853 10.7791 14.032C10.7791 13.1893 10.9765 12.4533 11.3711 11.824C11.7658 11.1947 12.3098 10.7093 13.0031 10.368C13.7071 10.0267 14.5178 9.856 15.4351 9.856C16.3845 9.856 17.1738 10.0267 17.8031 10.368C18.4431 10.6987 18.9178 11.2 19.2271 11.872C19.5365 12.5333 19.6645 13.3707 19.6111 14.384H12.5871C12.6405 14.832 12.7845 15.2373 13.0191 15.6C13.2645 15.952 13.5951 16.2293 14.0111 16.432C14.4271 16.624 14.9125 16.72 15.4671 16.72C16.0858 16.72 16.6031 16.5973 17.0191 16.352C17.4458 16.1067 17.7231 15.7813 17.8511 15.376ZM15.3871 11.296C14.6618 11.296 14.0645 11.4773 13.5951 11.84C13.1258 12.192 12.8218 12.6453 12.6831 13.2H17.8191C17.7765 12.6027 17.5365 12.1387 17.0991 11.808C16.6618 11.4667 16.0911 11.296 15.3871 11.296ZM27.8511 15.376H29.5631C29.4778 15.92 29.2645 16.4053 28.9231 16.832C28.5925 17.248 28.1391 17.5787 27.5631 17.824C26.9871 18.0587 26.2991 18.176 25.4991 18.176C24.5925 18.176 23.7818 18.0107 23.0671 17.68C22.3525 17.3387 21.7925 16.8587 21.3871 16.24C20.9818 15.6213 20.7791 14.8853 20.7791 14.032C20.7791 13.1893 20.9765 12.4533 21.3711 11.824C21.7658 11.1947 22.3098 10.7093 23.0031 10.368C23.7071 10.0267 24.5178 9.856 25.4351 9.856C26.3845 9.856 27.1738 10.0267 27.8031 10.368C28.4431 10.6987 28.9178 11.2 29.2271 11.872C29.5365 12.5333 29.6645 13.3707 29.6111 14.384H22.5871C22.6405 14.832 22.7845 15.2373 23.0191 15.6C23.2645 15.952 23.5951 16.2293 24.0111 16.432C24.4271 16.624 24.9125 16.72 25.4671 16.72C26.0858 16.72 26.6031 16.5973 27.0191 16.352C27.4458 16.1067 27.7231 15.7813 27.8511 15.376ZM25.3871 11.296C24.6618 11.296 24.0645 11.4773 23.5951 11.84C23.1258 12.192 22.8218 12.6453 22.6831 13.2H27.8191C27.7765 12.6027 27.5365 12.1387 27.0991 11.808C26.6618 11.4667 26.0911 11.296 25.3871 11.296ZM34.8826 10.032H36.6586V18H34.8826V10.032ZM40.0186 9.856C40.4773 9.856 40.8986 9.92 41.2826 10.048C41.6773 10.176 42.0133 10.3733 42.2906 10.64C42.5786 10.896 42.7973 11.216 42.9466 11.6C43.1066 11.984 43.1866 12.4373 43.1866 12.96V18H41.4106V13.312C41.4106 12.6613 41.2506 12.1813 40.9306 11.872C40.6213 11.552 40.1306 11.392 39.4586 11.392C38.9466 11.392 38.4773 11.504 38.0506 11.728C37.6346 11.9413 37.2933 12.224 37.0266 12.576C36.76 12.9173 36.6053 13.296 36.5626 13.712L36.5466 12.848C36.6 12.4533 36.7173 12.08 36.8986 11.728C37.08 11.3653 37.32 11.0453 37.6186 10.768C37.9173 10.48 38.2693 10.256 38.6746 10.096C39.08 9.936 39.528 9.856 40.0186 9.856ZM46.3706 9.856C46.84 9.856 47.2666 9.92 47.6506 10.048C48.0346 10.176 48.3653 10.3733 48.6426 10.64C48.9306 10.896 49.1546 11.216 49.3146 11.6C49.4746 11.984 49.5546 12.4373 49.5546 12.96V18H47.7626V13.312C47.7626 12.6613 47.6026 12.1813 47.2826 11.872C46.9733 11.552 46.4826 11.392 45.8106 11.392C45.2986 11.392 44.8293 11.504 44.4026 11.728C43.9866 11.9413 43.6453 12.224 43.3786 12.576C43.1226 12.9173 42.9733 13.296 42.9306 13.712L42.8986 12.816C42.952 12.432 43.0746 12.064 43.2666 11.712C43.4586 11.3493 43.704 11.0293 44.0026 10.752C44.3013 10.4747 44.648 10.256 45.0426 10.096C45.448 9.936 45.8906 9.856 46.3706 9.856ZM55.7476 18.176C54.8623 18.176 54.0676 18.016 53.3636 17.696C52.6596 17.376 52.105 16.9067 51.6996 16.288C51.2943 15.6693 51.0916 14.9173 51.0916 14.032C51.0916 13.1573 51.2943 12.4107 51.6996 11.792C52.105 11.1627 52.6596 10.6827 53.3636 10.352C54.0676 10.0213 54.8623 9.856 55.7476 9.856C56.633 9.856 57.4223 10.0213 58.1156 10.352C58.809 10.6827 59.353 11.1627 59.7476 11.792C60.153 12.4107 60.3556 13.1573 60.3556 14.032C60.3556 14.9173 60.153 15.6693 59.7476 16.288C59.353 16.9067 58.809 17.376 58.1156 17.696C57.4223 18.016 56.633 18.176 55.7476 18.176ZM55.7476 16.72C56.2596 16.72 56.729 16.6187 57.1556 16.416C57.5823 16.2133 57.9183 15.9093 58.1636 15.504C58.4196 15.0987 58.5476 14.608 58.5476 14.032C58.5476 13.456 58.4196 12.9653 58.1636 12.56C57.9183 12.1547 57.5823 11.8453 57.1556 11.632C56.7396 11.408 56.2703 11.296 55.7476 11.296C55.225 11.296 54.7503 11.4027 54.3236 11.616C53.897 11.8293 53.5503 12.1387 53.2836 12.544C53.0276 12.9493 52.8996 13.4453 52.8996 14.032C52.8996 14.608 53.0276 15.0987 53.2836 15.504C53.5396 15.9093 53.881 16.2133 54.3076 16.416C54.745 16.6187 55.225 16.72 55.7476 16.72ZM61.9451 10.032H63.7211V18H61.9451V10.032ZM66.6011 11.552C66.0251 11.552 65.5291 11.6747 65.1131 11.92C64.7078 12.1653 64.3825 12.464 64.1371 12.816C63.8918 13.168 63.7211 13.5093 63.6251 13.84L63.6091 12.944C63.6198 12.8267 63.6571 12.6507 63.7211 12.416C63.7851 12.1707 63.8811 11.904 64.0091 11.616C64.1478 11.328 64.3291 11.0507 64.5531 10.784C64.7878 10.5067 65.0705 10.2827 65.4011 10.112C65.7425 9.94133 66.1425 9.856 66.6011 9.856V11.552ZM74.6011 15.376H76.3131C76.2278 15.92 76.0145 16.4053 75.6731 16.832C75.3425 17.248 74.8891 17.5787 74.3131 17.824C73.7371 18.0587 73.0491 18.176 72.2491 18.176C71.3425 18.176 70.5318 18.0107 69.8171 17.68C69.1025 17.3387 68.5425 16.8587 68.1371 16.24C67.7318 15.6213 67.5291 14.8853 67.5291 14.032C67.5291 13.1893 67.7265 12.4533 68.1211 11.824C68.5158 11.1947 69.0598 10.7093 69.7531 10.368C70.4571 10.0267 71.2678 9.856 72.1851 9.856C73.1345 9.856 73.9238 10.0267 74.5531 10.368C75.1931 10.6987 75.6678 11.2 75.9771 11.872C76.2865 12.5333 76.4145 13.3707 76.3611 14.384H69.3371C69.3905 14.832 69.5345 15.2373 69.7691 15.6C70.0145 15.952 70.3451 16.2293 70.7611 16.432C71.1771 16.624 71.6625 16.72 72.2171 16.72C72.8358 16.72 73.3531 16.5973 73.7691 16.352C74.1958 16.1067 74.4731 15.7813 74.6011 15.376ZM72.1371 11.296C71.4118 11.296 70.8145 11.4773 70.3451 11.84C69.8758 12.192 69.5718 12.6453 69.4331 13.2H74.5691C74.5265 12.6027 74.2865 12.1387 73.8491 11.808C73.4118 11.4667 72.8411 11.296 72.1371 11.296Z" fill="#2C5D8C"/>
<path d="M92 21.5C91.45 21.5 90.979 21.304 90.587 20.912C90.195 20.52 89.9993 20.0493 90 19.5V5.5C90 4.95 90.196 4.479 90.588 4.087C90.98 3.695 91.4507 3.49934 92 3.5H99V5.5H92V19.5H106V12.5H108V19.5C108 20.05 107.804 20.521 107.412 20.913C107.02 21.305 106.549 21.5007 106 21.5H92ZM96.7 16.2L95.3 14.8L104.6 5.5H101V3.5H108V10.5H106V6.9L96.7 16.2Z" fill="#2C5D8C"/>
</svg>
